<mxfile host="Electron" agent="Mozilla/5.0 (X11; Linux x86_64) AppleWebKit/537.36 (KHTML, like Gecko) draw.io/24.7.17 Chrome/128.0.6613.36 Electron/32.0.1 Safari/537.36" version="24.7.17">
  <diagram name="Page-1" id="lYfxhOO7z1cB5b1jiKz8">
    <mxGraphModel dx="1434" dy="871" grid="1" gridSize="10" guides="1" tooltips="1" connect="1" arrows="1" fold="1" page="1" pageScale="1" pageWidth="850" pageHeight="1100" math="0" shadow="0">
      <root>
        <mxCell id="0" />
        <mxCell id="1" parent="0" />
        <mxCell id="oxOS3Tv4ohXXyrB4kl3e-54" value="" style="rounded=0;whiteSpace=wrap;html=1;rotation=90;strokeWidth=0.5;" vertex="1" parent="1">
          <mxGeometry x="380" y="160" width="20" height="40" as="geometry" />
        </mxCell>
        <mxCell id="oxOS3Tv4ohXXyrB4kl3e-1" value="" style="rounded=0;whiteSpace=wrap;html=1;rotation=90;" vertex="1" parent="1">
          <mxGeometry x="220" y="380" width="80" height="40" as="geometry" />
        </mxCell>
        <mxCell id="oxOS3Tv4ohXXyrB4kl3e-2" value="" style="whiteSpace=wrap;html=1;aspect=fixed;" vertex="1" parent="1">
          <mxGeometry x="280" y="250" width="120" height="120" as="geometry" />
        </mxCell>
        <mxCell id="oxOS3Tv4ohXXyrB4kl3e-3" value="" style="whiteSpace=wrap;html=1;aspect=fixed;" vertex="1" parent="1">
          <mxGeometry x="290" y="260" width="100" height="100" as="geometry" />
        </mxCell>
        <mxCell id="oxOS3Tv4ohXXyrB4kl3e-4" value="" style="rounded=0;whiteSpace=wrap;html=1;rotation=90;" vertex="1" parent="1">
          <mxGeometry x="302.5" y="387.5" width="75" height="40" as="geometry" />
        </mxCell>
        <mxCell id="oxOS3Tv4ohXXyrB4kl3e-5" value="" style="rounded=0;whiteSpace=wrap;html=1;rotation=90;" vertex="1" parent="1">
          <mxGeometry x="290" y="360" width="20" height="40" as="geometry" />
        </mxCell>
        <mxCell id="oxOS3Tv4ohXXyrB4kl3e-6" value="" style="rounded=0;whiteSpace=wrap;html=1;rotation=90;" vertex="1" parent="1">
          <mxGeometry x="378.75" y="391.25" width="70" height="27.5" as="geometry" />
        </mxCell>
        <mxCell id="oxOS3Tv4ohXXyrB4kl3e-7" value="" style="rounded=0;whiteSpace=wrap;html=1;rotation=90;" vertex="1" parent="1">
          <mxGeometry x="370" y="360" width="20" height="40" as="geometry" />
        </mxCell>
        <mxCell id="oxOS3Tv4ohXXyrB4kl3e-9" value="" style="endArrow=none;dashed=1;html=1;rounded=0;entryX=0;entryY=1;entryDx=0;entryDy=0;" edge="1" parent="1" target="oxOS3Tv4ohXXyrB4kl3e-1">
          <mxGeometry width="50" height="50" relative="1" as="geometry">
            <mxPoint x="240" y="230" as="sourcePoint" />
            <mxPoint x="240" y="290" as="targetPoint" />
          </mxGeometry>
        </mxCell>
        <mxCell id="oxOS3Tv4ohXXyrB4kl3e-10" value="" style="rounded=0;whiteSpace=wrap;html=1;rotation=90;" vertex="1" parent="1">
          <mxGeometry x="300" y="170" width="60" height="100" as="geometry" />
        </mxCell>
        <mxCell id="oxOS3Tv4ohXXyrB4kl3e-11" value="" style="rounded=0;whiteSpace=wrap;html=1;rotation=90;strokeWidth=0.5;" vertex="1" parent="1">
          <mxGeometry x="360" y="210" width="60" height="20" as="geometry" />
        </mxCell>
        <mxCell id="oxOS3Tv4ohXXyrB4kl3e-13" value="" style="rounded=0;whiteSpace=wrap;html=1;rotation=90;strokeWidth=0.5;" vertex="1" parent="1">
          <mxGeometry x="245" y="215" width="60" height="10" as="geometry" />
        </mxCell>
        <mxCell id="oxOS3Tv4ohXXyrB4kl3e-14" value="" style="endArrow=none;dashed=1;html=1;rounded=0;entryX=0.664;entryY=1.229;entryDx=0;entryDy=0;entryPerimeter=0;" edge="1" parent="1" target="oxOS3Tv4ohXXyrB4kl3e-13">
          <mxGeometry width="50" height="50" relative="1" as="geometry">
            <mxPoint x="240" y="230" as="sourcePoint" />
            <mxPoint x="250" y="370" as="targetPoint" />
          </mxGeometry>
        </mxCell>
        <mxCell id="oxOS3Tv4ohXXyrB4kl3e-15" value="" style="rounded=0;whiteSpace=wrap;html=1;rotation=90;" vertex="1" parent="1">
          <mxGeometry x="402.19" y="333.44" width="23.13" height="27.5" as="geometry" />
        </mxCell>
        <mxCell id="oxOS3Tv4ohXXyrB4kl3e-16" value="" style="rounded=0;whiteSpace=wrap;html=1;rotation=90;" vertex="1" parent="1">
          <mxGeometry x="381.53" y="292.5" width="64.41" height="27.5" as="geometry" />
        </mxCell>
        <mxCell id="oxOS3Tv4ohXXyrB4kl3e-20" value="8" style="text;html=1;align=center;verticalAlign=middle;whiteSpace=wrap;rounded=0;" vertex="1" parent="1">
          <mxGeometry x="230" y="387.5" width="60" height="30" as="geometry" />
        </mxCell>
        <mxCell id="oxOS3Tv4ohXXyrB4kl3e-21" value="7" style="text;html=1;align=center;verticalAlign=middle;whiteSpace=wrap;rounded=0;" vertex="1" parent="1">
          <mxGeometry x="270" y="365" width="60" height="30" as="geometry" />
        </mxCell>
        <mxCell id="oxOS3Tv4ohXXyrB4kl3e-22" value="6" style="text;html=1;align=center;verticalAlign=middle;whiteSpace=wrap;rounded=0;" vertex="1" parent="1">
          <mxGeometry x="310" y="392.5" width="60" height="30" as="geometry" />
        </mxCell>
        <mxCell id="oxOS3Tv4ohXXyrB4kl3e-23" value="5" style="text;html=1;align=center;verticalAlign=middle;whiteSpace=wrap;rounded=0;" vertex="1" parent="1">
          <mxGeometry x="350" y="365" width="60" height="30" as="geometry" />
        </mxCell>
        <mxCell id="oxOS3Tv4ohXXyrB4kl3e-24" value="4" style="text;html=1;align=center;verticalAlign=middle;whiteSpace=wrap;rounded=0;" vertex="1" parent="1">
          <mxGeometry x="383.74" y="392.5" width="60" height="30" as="geometry" />
        </mxCell>
        <mxCell id="oxOS3Tv4ohXXyrB4kl3e-25" value="8" style="text;html=1;align=center;verticalAlign=middle;whiteSpace=wrap;rounded=0;" vertex="1" parent="1">
          <mxGeometry x="230" y="290" width="60" height="30" as="geometry" />
        </mxCell>
        <mxCell id="oxOS3Tv4ohXXyrB4kl3e-26" value="2&lt;span style=&quot;color: rgba(0, 0, 0, 0); font-family: monospace; font-size: 0px; text-align: start; text-wrap: nowrap;&quot;&gt;%3CmxGraphModel%3E%3Croot%3E%3CmxCell%20id%3D%220%22%2F%3E%3CmxCell%20id%3D%221%22%20parent%3D%220%22%2F%3E%3CmxCell%20id%3D%222%22%20value%3D%228%22%20style%3D%22text%3Bhtml%3D1%3Balign%3Dcenter%3BverticalAlign%3Dmiddle%3BwhiteSpace%3Dwrap%3Brounded%3D0%3B%22%20vertex%3D%221%22%20parent%3D%221%22%3E%3CmxGeometry%20x%3D%22230%22%20y%3D%22290%22%20width%3D%2260%22%20height%3D%2230%22%20as%3D%22geometry%22%2F%3E%3C%2FmxCell%3E%3C%2Froot%3E%3C%2FmxGraphModel%3E&lt;/span&gt;" style="text;html=1;align=center;verticalAlign=middle;whiteSpace=wrap;rounded=0;" vertex="1" parent="1">
          <mxGeometry x="255" y="290" width="60" height="30" as="geometry" />
        </mxCell>
        <mxCell id="oxOS3Tv4ohXXyrB4kl3e-27" value="2&lt;span style=&quot;color: rgba(0, 0, 0, 0); font-family: monospace; font-size: 0px; text-align: start; text-wrap: nowrap;&quot;&gt;%3CmxGraphModel%3E%3Croot%3E%3CmxCell%20id%3D%220%22%2F%3E%3CmxCell%20id%3D%221%22%20parent%3D%220%22%2F%3E%3CmxCell%20id%3D%222%22%20value%3D%228%22%20style%3D%22text%3Bhtml%3D1%3Balign%3Dcenter%3BverticalAlign%3Dmiddle%3BwhiteSpace%3Dwrap%3Brounded%3D0%3B%22%20vertex%3D%221%22%20parent%3D%221%22%3E%3CmxGeometry%20x%3D%22230%22%20y%3D%22290%22%20width%3D%2260%22%20height%3D%2230%22%20as%3D%22geometry%22%2F%3E%3C%2FmxCell%3E%3C%2Froot%3E%3C%2FmxGraphModel%3E&lt;/span&gt;" style="text;html=1;align=center;verticalAlign=middle;whiteSpace=wrap;rounded=0;" vertex="1" parent="1">
          <mxGeometry x="365" y="290" width="60" height="30" as="geometry" />
        </mxCell>
        <mxCell id="oxOS3Tv4ohXXyrB4kl3e-28" value="3" style="text;html=1;align=center;verticalAlign=middle;whiteSpace=wrap;rounded=0;" vertex="1" parent="1">
          <mxGeometry x="382.18" y="290" width="60" height="30" as="geometry" />
        </mxCell>
        <mxCell id="oxOS3Tv4ohXXyrB4kl3e-29" value="1" style="text;html=1;align=center;verticalAlign=middle;whiteSpace=wrap;rounded=0;" vertex="1" parent="1">
          <mxGeometry x="323.74" y="205" width="60" height="30" as="geometry" />
        </mxCell>
        <mxCell id="oxOS3Tv4ohXXyrB4kl3e-30" value="d" style="text;html=1;align=center;verticalAlign=middle;whiteSpace=wrap;rounded=0;" vertex="1" parent="1">
          <mxGeometry x="280" y="205" width="60" height="30" as="geometry" />
        </mxCell>
        <mxCell id="oxOS3Tv4ohXXyrB4kl3e-31" value="c" style="text;html=1;align=center;verticalAlign=middle;whiteSpace=wrap;rounded=0;" vertex="1" parent="1">
          <mxGeometry x="385" y="205" width="10" height="30" as="geometry" />
        </mxCell>
        <mxCell id="oxOS3Tv4ohXXyrB4kl3e-32" value="" style="endArrow=none;html=1;rounded=0;entryX=0;entryY=0;entryDx=0;entryDy=0;" edge="1" parent="1" target="oxOS3Tv4ohXXyrB4kl3e-11">
          <mxGeometry width="50" height="50" relative="1" as="geometry">
            <mxPoint x="410" y="190" as="sourcePoint" />
            <mxPoint x="400" y="210" as="targetPoint" />
          </mxGeometry>
        </mxCell>
        <mxCell id="oxOS3Tv4ohXXyrB4kl3e-33" value="" style="endArrow=none;html=1;rounded=0;" edge="1" parent="1">
          <mxGeometry width="50" height="50" relative="1" as="geometry">
            <mxPoint x="410" y="170" as="sourcePoint" />
            <mxPoint x="410" y="190" as="targetPoint" />
          </mxGeometry>
        </mxCell>
        <mxCell id="oxOS3Tv4ohXXyrB4kl3e-34" value="" style="endArrow=none;html=1;rounded=0;" edge="1" parent="1">
          <mxGeometry width="50" height="50" relative="1" as="geometry">
            <mxPoint x="410" y="170" as="sourcePoint" />
            <mxPoint x="450" y="170" as="targetPoint" />
          </mxGeometry>
        </mxCell>
        <mxCell id="oxOS3Tv4ohXXyrB4kl3e-35" value="" style="endArrow=none;html=1;rounded=0;" edge="1" parent="1">
          <mxGeometry width="50" height="50" relative="1" as="geometry">
            <mxPoint x="449.75" y="170" as="sourcePoint" />
            <mxPoint x="449.75" y="190" as="targetPoint" />
          </mxGeometry>
        </mxCell>
        <mxCell id="oxOS3Tv4ohXXyrB4kl3e-36" value="" style="endArrow=none;html=1;rounded=0;" edge="1" parent="1">
          <mxGeometry width="50" height="50" relative="1" as="geometry">
            <mxPoint x="449.75" y="190" as="sourcePoint" />
            <mxPoint x="489.75" y="190" as="targetPoint" />
          </mxGeometry>
        </mxCell>
        <mxCell id="oxOS3Tv4ohXXyrB4kl3e-37" value="" style="rounded=0;whiteSpace=wrap;html=1;rotation=90;" vertex="1" parent="1">
          <mxGeometry x="413.05" y="246.95" width="15.32" height="41.4" as="geometry" />
        </mxCell>
        <mxCell id="oxOS3Tv4ohXXyrB4kl3e-38" value="" style="endArrow=none;html=1;rounded=0;" edge="1" parent="1">
          <mxGeometry width="50" height="50" relative="1" as="geometry">
            <mxPoint x="430" y="250" as="sourcePoint" />
            <mxPoint x="490" y="250" as="targetPoint" />
          </mxGeometry>
        </mxCell>
        <mxCell id="oxOS3Tv4ohXXyrB4kl3e-40" value="" style="rounded=0;whiteSpace=wrap;html=1;rotation=90;" vertex="1" parent="1">
          <mxGeometry x="462.59" y="311.87" width="16.5" height="86.73" as="geometry" />
        </mxCell>
        <mxCell id="oxOS3Tv4ohXXyrB4kl3e-41" value="" style="rounded=0;whiteSpace=wrap;html=1;rotation=90;" vertex="1" parent="1">
          <mxGeometry x="537.32" y="337.32" width="15.64" height="36" as="geometry" />
        </mxCell>
        <mxCell id="oxOS3Tv4ohXXyrB4kl3e-42" value="11" style="text;html=1;align=center;verticalAlign=middle;whiteSpace=wrap;rounded=0;" vertex="1" parent="1">
          <mxGeometry x="440.84000000000003" y="340.32" width="60" height="30" as="geometry" />
        </mxCell>
        <mxCell id="oxOS3Tv4ohXXyrB4kl3e-43" value="10" style="text;html=1;align=center;verticalAlign=middle;whiteSpace=wrap;rounded=0;" vertex="1" parent="1">
          <mxGeometry x="515.14" y="340" width="60" height="30" as="geometry" />
        </mxCell>
        <mxCell id="oxOS3Tv4ohXXyrB4kl3e-44" value="" style="rounded=0;whiteSpace=wrap;html=1;rotation=90;" vertex="1" parent="1">
          <mxGeometry x="519.02" y="376.13" width="52.25" height="27.5" as="geometry" />
        </mxCell>
        <mxCell id="oxOS3Tv4ohXXyrB4kl3e-45" value="" style="endArrow=none;html=1;rounded=0;exitX=0.75;exitY=1;exitDx=0;exitDy=0;entryX=1;entryY=1;entryDx=0;entryDy=0;" edge="1" parent="1" source="oxOS3Tv4ohXXyrB4kl3e-24" target="oxOS3Tv4ohXXyrB4kl3e-44">
          <mxGeometry width="50" height="50" relative="1" as="geometry">
            <mxPoint x="110" y="460" as="sourcePoint" />
            <mxPoint x="160" y="410" as="targetPoint" />
          </mxGeometry>
        </mxCell>
        <mxCell id="oxOS3Tv4ohXXyrB4kl3e-46" value="" style="rounded=0;whiteSpace=wrap;html=1;rotation=90;" vertex="1" parent="1">
          <mxGeometry x="519.02" y="428.5" width="52.25" height="27.5" as="geometry" />
        </mxCell>
        <mxCell id="oxOS3Tv4ohXXyrB4kl3e-47" value="" style="endArrow=none;html=1;rounded=0;entryX=1;entryY=1;entryDx=0;entryDy=0;" edge="1" parent="1">
          <mxGeometry width="50" height="50" relative="1" as="geometry">
            <mxPoint x="400" y="450" as="sourcePoint" />
            <mxPoint x="530.37" y="438.75" as="targetPoint" />
          </mxGeometry>
        </mxCell>
        <mxCell id="oxOS3Tv4ohXXyrB4kl3e-48" value="" style="endArrow=none;html=1;rounded=0;entryX=1;entryY=1;entryDx=0;entryDy=0;" edge="1" parent="1" target="oxOS3Tv4ohXXyrB4kl3e-6">
          <mxGeometry width="50" height="50" relative="1" as="geometry">
            <mxPoint x="400" y="449" as="sourcePoint" />
            <mxPoint x="420" y="460" as="targetPoint" />
          </mxGeometry>
        </mxCell>
        <mxCell id="oxOS3Tv4ohXXyrB4kl3e-49" value="9" style="text;html=1;align=center;verticalAlign=middle;whiteSpace=wrap;rounded=0;" vertex="1" parent="1">
          <mxGeometry x="515.14" y="428.5" width="60" height="30" as="geometry" />
        </mxCell>
        <mxCell id="oxOS3Tv4ohXXyrB4kl3e-50" value="" style="endArrow=none;html=1;rounded=0;" edge="1" parent="1" source="oxOS3Tv4ohXXyrB4kl3e-52">
          <mxGeometry width="50" height="50" relative="1" as="geometry">
            <mxPoint x="400" y="250" as="sourcePoint" />
            <mxPoint x="410" y="250" as="targetPoint" />
          </mxGeometry>
        </mxCell>
        <mxCell id="oxOS3Tv4ohXXyrB4kl3e-53" value="" style="endArrow=none;html=1;rounded=0;" edge="1" parent="1">
          <mxGeometry width="50" height="50" relative="1" as="geometry">
            <mxPoint x="420" y="250" as="sourcePoint" />
            <mxPoint x="430" y="250" as="targetPoint" />
          </mxGeometry>
        </mxCell>
        <mxCell id="oxOS3Tv4ohXXyrB4kl3e-55" value="" style="endArrow=none;html=1;rounded=0;" edge="1" parent="1">
          <mxGeometry width="50" height="50" relative="1" as="geometry">
            <mxPoint x="490" y="250" as="sourcePoint" />
            <mxPoint x="490" y="190" as="targetPoint" />
          </mxGeometry>
        </mxCell>
        <mxCell id="oxOS3Tv4ohXXyrB4kl3e-56" value="" style="endArrow=none;html=1;rounded=0;strokeWidth=0.5;" edge="1" parent="1">
          <mxGeometry width="50" height="50" relative="1" as="geometry">
            <mxPoint x="410" y="230" as="sourcePoint" />
            <mxPoint x="410" y="210" as="targetPoint" />
          </mxGeometry>
        </mxCell>
        <mxCell id="oxOS3Tv4ohXXyrB4kl3e-57" value="" style="endArrow=none;html=1;rounded=0;strokeWidth=0.5;" edge="1" parent="1">
          <mxGeometry width="50" height="50" relative="1" as="geometry">
            <mxPoint x="430" y="210" as="sourcePoint" />
            <mxPoint x="410" y="210" as="targetPoint" />
          </mxGeometry>
        </mxCell>
        <mxCell id="oxOS3Tv4ohXXyrB4kl3e-58" value="" style="endArrow=none;html=1;rounded=0;strokeWidth=0.5;" edge="1" parent="1">
          <mxGeometry width="50" height="50" relative="1" as="geometry">
            <mxPoint x="430" y="230" as="sourcePoint" />
            <mxPoint x="410" y="230" as="targetPoint" />
          </mxGeometry>
        </mxCell>
        <mxCell id="oxOS3Tv4ohXXyrB4kl3e-60" value="" style="endArrow=none;html=1;rounded=0;strokeWidth=0.5;" edge="1" parent="1">
          <mxGeometry width="50" height="50" relative="1" as="geometry">
            <mxPoint x="480" y="240" as="sourcePoint" />
            <mxPoint x="480" y="200" as="targetPoint" />
          </mxGeometry>
        </mxCell>
        <mxCell id="oxOS3Tv4ohXXyrB4kl3e-62" value="" style="endArrow=none;html=1;rounded=0;strokeWidth=0.5;" edge="1" parent="1">
          <mxGeometry width="50" height="50" relative="1" as="geometry">
            <mxPoint x="440" y="240" as="sourcePoint" />
            <mxPoint x="480" y="240" as="targetPoint" />
          </mxGeometry>
        </mxCell>
        <mxCell id="oxOS3Tv4ohXXyrB4kl3e-63" value="" style="endArrow=none;html=1;rounded=0;strokeWidth=0.5;" edge="1" parent="1">
          <mxGeometry width="50" height="50" relative="1" as="geometry">
            <mxPoint x="440.84" y="200" as="sourcePoint" />
            <mxPoint x="480.84" y="200" as="targetPoint" />
          </mxGeometry>
        </mxCell>
        <mxCell id="oxOS3Tv4ohXXyrB4kl3e-64" value="" style="endArrow=none;html=1;rounded=0;" edge="1" parent="1" target="oxOS3Tv4ohXXyrB4kl3e-52">
          <mxGeometry width="50" height="50" relative="1" as="geometry">
            <mxPoint x="400" y="250" as="sourcePoint" />
            <mxPoint x="410" y="250" as="targetPoint" />
          </mxGeometry>
        </mxCell>
        <mxCell id="oxOS3Tv4ohXXyrB4kl3e-52" value="e" style="text;html=1;align=center;verticalAlign=middle;whiteSpace=wrap;rounded=0;" vertex="1" parent="1">
          <mxGeometry x="408.25999999999993" y="242" width="15" height="15" as="geometry" />
        </mxCell>
        <mxCell id="oxOS3Tv4ohXXyrB4kl3e-65" value="" style="endArrow=none;html=1;rounded=0;entryX=0;entryY=0;entryDx=0;entryDy=0;" edge="1" parent="1" target="oxOS3Tv4ohXXyrB4kl3e-37">
          <mxGeometry width="50" height="50" relative="1" as="geometry">
            <mxPoint x="440" y="250" as="sourcePoint" />
            <mxPoint x="500" y="260" as="targetPoint" />
          </mxGeometry>
        </mxCell>
        <mxCell id="oxOS3Tv4ohXXyrB4kl3e-66" value="b" style="text;html=1;align=center;verticalAlign=middle;whiteSpace=wrap;rounded=0;" vertex="1" parent="1">
          <mxGeometry x="415" y="205" width="10" height="30" as="geometry" />
        </mxCell>
        <mxCell id="oxOS3Tv4ohXXyrB4kl3e-67" value="a" style="text;html=1;align=center;verticalAlign=middle;whiteSpace=wrap;rounded=0;" vertex="1" parent="1">
          <mxGeometry x="462.59000000000003" y="205" width="10" height="30" as="geometry" />
        </mxCell>
      </root>
    </mxGraphModel>
  </diagram>
</mxfile>
